<?xml version="1.0" encoding="utf-8"?>
<!-- Generator: Adobe Illustrator 16.0.0, SVG Export Plug-In . SVG Version: 6.00 Build 0)  -->
<!DOCTYPE svg PUBLIC "-//W3C//DTD SVG 1.1//EN" "http://www.w3.org/Graphics/SVG/1.1/DTD/svg11.dtd">
<svg version="1.1" id="Layer_1" xmlns="http://www.w3.org/2000/svg" xmlns:xlink="http://www.w3.org/1999/xlink" x="0px" y="0px"
	 width="400px" height="107.792px" viewBox="-116.083 0 400 107.792" enable-background="new -116.083 0 400 107.792"
	 xml:space="preserve">
<g>
	<path fill="#171A26" d="M-83.846,70.913h-10.667v34.547h-19.97V1.705h29.638c3.727,0,7.364,0.577,10.985,1.704
		c3.621,1.138,6.864,2.751,9.728,4.888c2.864,2.144,5.197,4.81,6.939,7.916c1.728,3.106,2.637,6.622,2.637,10.547V45.73
		c0,3.97-1.152,7.697-3.409,11.182c-2.273,3.485-5.015,6.577-8.273,9.304l14,39.244h-19.259l-12.349-34.518V70.913z M-74.543,31.327
		c0-1.583-0.151-3.136-0.515-4.658c-0.303-1.516-0.864-2.887-1.652-4.061c-0.788-1.198-1.863-2.13-3.212-2.796
		c-1.348-0.667-3-1.008-4.909-1.008h-9.667v34.683h9.652c3.803,0,6.515-1.242,8-3.712c1.53-2.485,2.288-5.379,2.288-8.652v-9.796
		H-74.543z M-18.525,18.804v27.592H3.809v17.093h-22.334v24.697H8.719v17.273h-47.017V1.705H8.719v17.1H-18.51H-18.525z
		 M21.749,53.668c0-10.485,1.288-19.183,3.834-26.068c2.545-6.887,5.742-12.35,9.651-16.417c3.88-4.062,8.061-6.934,12.652-8.637
		C52.448,0.833,56.781,0,60.827,0c2.742,0,5.59,0.197,8.667,0.591c3.03,0.402,5.425,0.879,7.106,1.44v16.758
		c-1.592-0.34-3.547-0.591-5.834-0.772c-2.334-0.159-4.151-0.234-5.501-0.234c-4.182,0-7.757,0.9-10.742,2.696
		c-2.984,1.819-5.439,4.297-7.364,7.448c-1.954,3.167-3.363,6.894-4.257,11.167c-0.91,4.288-1.349,8.849-1.349,13.727
		c0,4.729,0.455,9.365,1.423,13.881c0.955,4.515,2.41,8.575,4.411,12.182c1.969,3.606,4.438,6.516,7.439,8.729
		c3,2.181,6.47,3.303,10.394,3.303c1.363,0,3.258-0.031,5.697-0.091c2.439-0.092,4.349-0.243,5.683-0.485v15.576
		c-0.348,0.243-1.137,0.485-2.38,0.667c-1.015,0.242-2.453,0.394-4.318,0.516c-1.863,0.121-4.303,0.181-7.363,0.181
		c-5.743,0-11.122-1.091-16.092-3.303c-4.97-2.241-9.273-5.546-12.94-10.03c-3.666-4.455-6.515-10.031-8.621-16.729
		c-2.121-6.697-3.167-14.576-3.167-23.592L21.749,53.668z M93.859,1.69h19.971v103.799H93.859V1.674V1.69z"/>
	<path fill="#00AF43" d="M152.771,44.533v60.927H132.8V1.705h21.138l20.833,47.903l21.152-47.903h20.835v103.755h-19.985V44.533
		l-19.288,39.441h-5.44L152.771,44.533z M255.502,18.804v27.592h22.35v17.093h-22.35v24.697h27.259v17.273h-47.047V1.705h47.047
		v17.1H255.502z"/>
</g>
</svg>
